<svg width="120" height="120" viewBox="0 0 120 120" fill="none" xmlns="http://www.w3.org/2000/svg">
  <defs>
    <linearGradient id="sadasya-glow" x1="12" y1="10" x2="108" y2="110" gradientUnits="userSpaceOnUse">
      <stop offset="0" stop-color="#6366F1"/>
      <stop offset="0.5" stop-color="#A855F7"/>
      <stop offset="1" stop-color="#FB923C"/>
    </linearGradient>
    <linearGradient id="sadasya-stroke" x1="34" y1="24" x2="88" y2="98" gradientUnits="userSpaceOnUse">
      <stop offset="0" stop-color="#FDE68A"/>
      <stop offset="0.4" stop-color="#C084FC"/>
      <stop offset="1" stop-color="#FED7AA"/>
    </linearGradient>
    <filter id="sadasya-shadow" x="-20%" y="-20%" width="140%" height="140%">
      <feDropShadow dx="0" dy="8" stdDeviation="12" flood-color="#1E293B" flood-opacity="0.35"/>
    </filter>
  </defs>
  <rect width="120" height="120" rx="32" fill="url(#sadasya-glow)" filter="url(#sadasya-shadow)"/>
  <path d="M82 32C75 25 59 24 50 31C43 37 42 48 50 53L71 64C77 67 79 75 74 80C66 86 52 86 46 78" stroke="url(#sadasya-stroke)" stroke-width="10" stroke-linecap="round" stroke-linejoin="round"/>
  <path d="M75 42C70 38 61 37 57 41C54 44 54 49 57 51L69 58C73 60 74 64 71 67C68 70 61 70 58 67" stroke="#0F172A" stroke-opacity="0.35" stroke-width="6" stroke-linecap="round" stroke-linejoin="round"/>
</svg>
